<?xml version="1.0" encoding="UTF-8" standalone="no"?>
<!-- Generator: Adobe Illustrator 23.0.2, SVG Export Plug-In . SVG Version: 6.00 Build 0)  -->

<svg
   xmlns:dc="http://purl.org/dc/elements/1.1/"
   xmlns:cc="http://creativecommons.org/ns#"
   xmlns:rdf="http://www.w3.org/1999/02/22-rdf-syntax-ns#"
   xmlns:svg="http://www.w3.org/2000/svg"
   xmlns="http://www.w3.org/2000/svg"
   xmlns:sodipodi="http://sodipodi.sourceforge.net/DTD/sodipodi-0.dtd"
   xmlns:inkscape="http://www.inkscape.org/namespaces/inkscape"
   version="1.1"
   id="Layer_1"
   x="0px"
   y="0px"
   width="89"
   height="20"
   viewBox="0 0 89 20"
   xml:space="preserve"
   sodipodi:docname="aglet_logo.svg"
   inkscape:version="0.92.4 (f8dce91, 2019-08-02)"><metadata
   id="metadata39"><rdf:RDF><cc:Work
       rdf:about=""><dc:format>image/svg+xml</dc:format><dc:type
         rdf:resource="http://purl.org/dc/dcmitype/StillImage" /><dc:title></dc:title></cc:Work></rdf:RDF></metadata><defs
   id="defs37" /><sodipodi:namedview
   pagecolor="#ffffff"
   bordercolor="#666666"
   borderopacity="1"
   objecttolerance="10"
   gridtolerance="10"
   guidetolerance="10"
   inkscape:pageopacity="0"
   inkscape:pageshadow="2"
   inkscape:window-width="1366"
   inkscape:window-height="709"
   id="namedview35"
   showgrid="false"
   inkscape:zoom="3.0133333"
   inkscape:cx="104.29232"
   inkscape:cy="33"
   inkscape:window-x="0"
   inkscape:window-y="22"
   inkscape:window-maximized="1"
   inkscape:current-layer="g32" />
<style
   type="text/css"
   id="style10">
	.st0{fill:#FFFFFF;}
</style>
<g
   id="g32"
   transform="matrix(0.29467404,0,0,0.29467404,0.63479336,0.339917)">
	<path
   class="st0"
   d="M 42.4,5.8999995 16.4,64.9 H 11.1 L 39.7,1.2 h 5.4 l 28.6,63.7 h -5.3 z"
   id="path12"
   inkscape:connector-curvature="0"
   style="fill:#ffffff" />
	<path
   class="st0"
   d="m 148.4,1.2 v 59 h 35.8 v 4.6 H 143.5 V 1.2 Z"
   id="path14"
   inkscape:connector-curvature="0"
   style="fill:#ffffff" />
	<g
   id="g20">
		<polygon
   class="st0"
   points="193.5,1.2 193.5,64.9 238.5,64.9 238.5,60.1 198.3,60.1 198.3,5.9 237.4,5.9 237.4,1.2 "
   id="polygon16"
   style="fill:#ffffff" />
		<rect
   x="205.89999"
   y="30.6"
   class="st0"
   width="29.700001"
   height="4.5"
   id="rect18"
   style="fill:#ffffff" />
	</g>
	<rect
   x="248.2"
   y="1.2999996"
   class="st0"
   width="50.900002"
   height="4.4000001"
   id="rect22"
   style="fill:#ffffff" />
	<rect
   x="271.20001"
   y="13.299999"
   class="st0"
   width="4.9000001"
   height="52.400002"
   id="rect24"
   style="fill:#ffffff" />
	<g
   id="g28">
		<polygon
   class="st0"
   points="29.5,1.2 0.9,64.9 6.2,64.9 34.2,1.2 "
   id="polygon26"
   style="fill:#ffffff" />
	</g>
	<path
   class="st0"
   d="m 105.8,31.6 v 4.3 H 128 v 17.8 c -5.5,5 -12.6,7.4 -19.4,7.4 C 90,61.1 80.5,48.2 80.5,33.2 80.4,18.5 90,4.7999995 108.6,4.7999995 c 7.2,0 14.9,2.7 20.5,8.2000005 l 2.8,-3.1000005 C 125.4,3.4999995 117,0.30000002 108.6,0.30000002 89.2,0.30000002 75.7,13.3 75.8,33.2 c 0,17.4 11.2,32.5 32.8,32.5 9.5,0 17.4,-3.6 24,-10.3 V 31.6 Z"
   id="path30"
   inkscape:connector-curvature="0"
   style="fill:#ffffff" />
</g>
</svg>